<svg xmlns="http://www.w3.org/2000/svg" viewBox="0 0 512 512">
	<circle cx="256" cy="256" r="256" fill="#ffd93b" />
	<path
		d="M512 256c0 141.44-114.64 256-256 256-80.48 0-152.32-37.12-199.28-95.28 43.92 35.52 99.84 56.72 160.72 56.72 141.36 0 256-114.56 256-256 0-60.88-21.2-116.8-56.72-160.72C474.8 103.68 512 175.52 512 256z"
		fill="#f4c534" />
	<circle cx="350.176" cy="225.6" r="40.176" fill="#3e4347" />
	<ellipse transform="scale(-1) rotate(23.917 981.086 -1707.156)" cx="361.564" cy="207.787" rx="12.16" ry="7.872"
		fill="#5a5f63" />
	<circle cx="161.824" cy="225.6" r="40.176" fill="#3e4347" />
	<ellipse transform="scale(-1) rotate(23.917 981.07 -817.807)" cx="173.206" cy="207.784" rx="12.16" ry="7.872"
		fill="#5a5f63" />
	<path
		d="M151.136 357.056c-4.832-4.544-5.056-12.144-.512-16.96 4.544-4.816 12.128-5.056 16.96-.512 49.584 46.672 127.248 46.672 176.832 0 4.832-4.544 12.416-4.304 16.96.512 4.544 4.832 4.32 12.416-.512 16.96-58.8 55.36-150.928 55.36-209.728 0z"
		fill="#3e4347" /></svg>