<svg xmlns="http://www.w3.org/2000/svg" viewBox="0 0 512 512">
	<circle cx="256" cy="256" r="256" fill="#ffd93b" />
	<path
		d="M512 256c0 141.44-114.64 256-256 256-80.48 0-152.32-37.12-199.28-95.28 43.92 35.52 99.84 56.72 160.72 56.72 141.36 0 256-114.56 256-256 0-60.88-21.2-116.8-56.72-160.72C474.8 103.68 512 175.52 512 256z"
		fill="#f4c534" />
	<g fill="#3e4347">
		<path
			d="M370.56 344.4c0 7.696-6.224 13.92-13.92 13.92H155.344c-7.616 0-13.92-6.224-13.92-13.92s6.304-13.92 13.92-13.92H356.64c7.712.016 13.92 6.224 13.92 13.92z" />
		<circle cx="174.512" cy="207.088" r="38.144" />
	</g>
	<ellipse transform="scale(-1) rotate(53.347 381.215 -379.522)" cx="190.667" cy="191.518" rx="10.016" ry="6.48"
		fill="#5a5f63" />
	<circle cx="337.44" cy="207.088" r="38.144" fill="#3e4347" />
	<ellipse transform="scale(-1) rotate(53.343 381.305 -703.919)" cx="353.586" cy="191.533" rx="10.016" ry="6.48"
		fill="#5a5f63" />
</svg>