<svg xmlns="http://www.w3.org/2000/svg" viewBox="0 0 512 512">
	<circle cx="256" cy="256" r="256" fill="#ffd93b" />
	<path
		d="M512 256c0 141.44-114.64 256-256 256-80.48 0-152.32-37.12-199.28-95.28 43.92 35.52 99.84 56.72 160.72 56.72 141.36 0 256-114.56 256-256 0-60.88-21.2-116.8-56.72-160.72C474.8 103.68 512 175.52 512 256z"
		fill="#f4c534" />
	<g fill="#3e4347">
		<path
			d="M221.024 248.56c0 27.312-25.872 49.392-57.728 49.392s-57.728-22.08-57.728-49.392c0-5.44.976-10.672 3.04-15.568 7.552 21.12 29.216 28.336 54.688 28.336 25.488 0 47.152-7.216 54.688-28.336 2.048 4.912 3.04 10.128 3.04 15.568zM290.976 248.56c0 27.312 25.872 49.392 57.728 49.392s57.728-22.08 57.728-49.392c0-5.44-.976-10.672-3.04-15.568-7.552 21.12-29.216 28.336-54.688 28.336-25.488 0-47.152-7.216-54.688-28.336-2.048 4.912-3.04 10.128-3.04 15.568z" />
	</g>
	<g fill="#e9b02c">
		<path
			d="M373.36 217.744c-40.608-8.352-64.432-25.456-74.976-53.856-2.048-5.52.768-11.664 6.288-13.712s11.664.768 13.712 6.288c5.264 14.208 16.768 31.632 59.264 40.368 5.776 1.184 9.488 6.832 8.304 12.592-1.2 5.888-6.944 9.504-12.592 8.32zM125.904 208.592c-.704-5.856 3.456-11.168 9.296-11.872 29.36-3.568 50.096-17.856 58.4-40.224 2.048-5.52 8.192-8.352 13.712-6.288 5.52 2.048 8.352 8.192 6.288 13.712-11.056 29.792-38.688 49.472-75.808 53.984a10.698 10.698 0 01-11.888-9.312z" />
	</g>
	<path
		d="M339.568 405.76c-56.88-21.872-110.112-21.872-167.008 0-8.672 3.152-15.712-8.656-9.744-16.368 26.416-34.624 59.6-54.304 93.184-54.304s66.912 19.68 93.184 54.304c5.952 7.712-1.088 19.504-9.616 16.368z"
		fill="#3e4347" />
</svg>